# xmcd
#
# Track frame offsets: 
#        150
#        23045
#        37651
#        62920
#        104301
#        124596
#        154296
#        165203
#        208919
#        227320
#        240320
#        257723
#        271819
#        288799
#        302556
#
# Disc length: 4354 seconds
#
# Revision: 0
# Processed by: cddbd v1.5.2PL0 Copyright (c) Steve Scherf et al.
# Submitted via: ExactAudioCopy v0.99pb4
#
DISCID=b411000f
DTITLE=Sammy Price - Blues for the Bluesicians
DYEAR=1969
DGENRE=Blues
TTITLE0=Royal Garden Blues
TTITLE1=Hungarian Rhapsody
TTITLE2=In the Evening
TTITLE3=Just a lonesome Babe in the Mood
TTITLE4=Rosetta
TTITLE5=West End Boogie
TTITLE6=Keepin' out of mischief now
TTITLE7=Struttin' with Georgia
TTITLE8=Jelly on my mind
TTITLE9=Boogie Woogie Minuet
TTITLE10=How Long Blues
TTITLE11=Blues for the Bluesicians
TTITLE12=Honey Grove Blues
TTITLE13=St. James Infirmary
TTITLE14=In the Evening
EXTD=
EXTT0=
EXTT1=
EXTT2=
EXTT3=
EXTT4=
EXTT5=
EXTT6=
EXTT7=
EXTT8=
EXTT9=
EXTT10=
EXTT11=
EXTT12=
EXTT13=
EXTT14=
PLAYORDER=
